<svg  xmlns="http://www.w3.org/2000/svg"
 width="1280.000000pt" height="1106.000000pt" viewBox="0 0 1280.000000 1106.000000">
<g transform="translate(0.000000,1106.000000) scale(0.100000,-0.100000)">
<path d="M8110 11038 c-84 -43 -144 -161 -157 -308 -5 -64 13 -167 78 -455 11
-50 21 -133 22 -187 2 -84 -1 -100 -19 -125 -71 -96 -240 -96 -639 -3 -218 51
-364 67 -480 52 -300 -39 -402 -244 -289 -581 19 -58 51 -131 71 -161 20 -30
95 -113 167 -185 142 -140 201 -220 331 -445 137 -237 252 -385 397 -507 197
-166 378 -260 617 -318 174 -43 281 -89 300 -131 29 -65 -47 -153 -179 -203
-154 -60 -293 -89 -650 -136 -279 -37 -267 -33 -473 -164 -138 -89 -209 -121
-265 -121 -20 0 -95 21 -167 46 -248 88 -279 95 -425 101 -296 12 -873 -30
-1252 -92 -412 -66 -563 -115 -987 -320 -268 -130 -290 -138 -746 -280 -183
-58 -290 -103 -418 -179 -304 -179 -572 -448 -784 -786 -122 -194 -489 -840
-554 -975 -189 -394 -333 -922 -469 -1727 -53 -316 -56 -362 -35 -632 22 -281
18 -460 -12 -527 -36 -82 -76 -106 -215 -134 -120 -25 -216 -59 -348 -125
-317 -159 -515 -352 -523 -509 l-2 -44 63 -14 c78 -18 105 -44 190 -187 36
-60 78 -117 97 -132 19 -14 75 -39 123 -54 124 -39 145 -51 255 -156 171 -161
246 -177 567 -124 63 11 178 29 255 40 218 31 287 48 475 111 96 32 209 64
250 70 146 23 368 2 1160 -106 649 -88 772 -97 1280 -93 391 3 408 2 485 -19
314 -85 436 -116 548 -138 427 -84 867 -96 1222 -34 219 38 357 83 416 136 34
30 39 41 39 78 0 56 -30 97 -156 210 -231 208 -311 301 -316 368 -3 29 125
258 167 300 78 79 126 86 186 26 87 -87 162 -222 278 -499 127 -304 222 -412
438 -499 149 -61 387 -110 663 -136 138 -13 165 -13 193 -1 84 35 184 48 442
56 290 10 325 15 546 70 86 22 221 51 300 65 253 45 323 68 382 123 51 48 32
116 -61 209 -147 146 -252 181 -612 203 -393 23 -481 63 -627 284 -131 197
-282 580 -300 761 -6 67 12 195 33 238 19 36 39 34 85 -8 22 -19 48 -35 58
-35 38 0 46 15 132 238 37 96 65 151 100 197 85 111 134 194 249 425 62 124
143 273 180 332 268 422 639 809 1023 1066 225 152 321 246 386 382 34 70 36
81 37 180 2 104 28 225 57 263 7 9 57 27 112 40 245 60 688 178 775 206 607
195 756 505 496 1036 -107 217 -230 391 -618 868 -120 147 -262 329 -315 404
-137 190 -222 293 -301 359 -185 158 -350 230 -782 344 -234 62 -293 81 -395
132 -110 55 -178 102 -258 177 -178 168 -270 355 -352 716 -134 590 -360 945
-880 1379 -223 186 -371 280 -492 311 -79 21 -121 19 -173 -7z"/>
</g>
</svg>
